<svg xmlns="http://www.w3.org/2000/svg" xmlns:xlink="http://www.w3.org/1999/xlink" width="100" zoomAndPan="magnify" viewBox="0 0 75 37.5" height="50" preserveAspectRatio="xMidYMid meet" version="1.0"><defs><g/><clipPath id="975943f9e4"><path d="M 2.863281 30.917969 L 39.867188 30.917969 L 39.867188 33.136719 L 2.863281 33.136719 Z M 2.863281 30.917969 " clip-rule="nonzero"/></clipPath></defs><g fill="#000000" fill-opacity="1"><g transform="translate(4.194079, 25.85393)"><g><path d="M 3.921875 0.375 C 3.472656 0.820312 3.125 1.046875 2.875 1.046875 C 2.5 1.046875 2.128906 0.953125 1.765625 0.765625 C 1.398438 0.585938 1.050781 0.359375 0.71875 0.078125 C 0.351562 -0.222656 0.0390625 -0.570312 -0.21875 -0.96875 C -0.488281 -1.363281 -0.625 -1.8125 -0.625 -2.3125 C -0.625 -2.9375 -0.335938 -3.742188 0.234375 -4.734375 C 0.804688 -5.734375 1.53125 -6.8125 2.40625 -7.96875 C 3.726562 -9.707031 4.84375 -11.207031 5.75 -12.46875 C 6.664062 -13.738281 7.265625 -14.613281 7.546875 -15.09375 C 7.691406 -15.351562 7.890625 -15.484375 8.140625 -15.484375 C 8.585938 -15.484375 9.140625 -15.316406 9.796875 -14.984375 C 10.460938 -14.660156 11.0625 -14.25 11.59375 -13.75 C 11.9375 -13.40625 12.175781 -13.066406 12.3125 -12.734375 C 12.457031 -12.398438 12.429688 -11.992188 12.234375 -11.515625 C 13.359375 -12.109375 14.363281 -12.585938 15.25 -12.953125 C 16.132812 -13.316406 16.800781 -13.5 17.25 -13.5 C 17.945312 -13.5 18.609375 -13.21875 19.234375 -12.65625 C 19.710938 -12.207031 19.972656 -11.765625 20.015625 -11.328125 C 20.054688 -10.890625 19.90625 -10.304688 19.5625 -9.578125 C 19.226562 -8.847656 18.765625 -8.023438 18.171875 -7.109375 C 17.585938 -6.191406 17.019531 -5.289062 16.46875 -4.40625 C 15.914062 -3.519531 15.554688 -2.738281 15.390625 -2.0625 C 16.378906 -2.289062 17.46875 -2.847656 18.65625 -3.734375 C 19.851562 -4.617188 21.179688 -6.03125 22.640625 -7.96875 L 22.765625 -8.140625 C 22.910156 -8.335938 23.015625 -8.445312 23.078125 -8.46875 C 23.148438 -8.5 23.21875 -8.488281 23.28125 -8.4375 L 23.40625 -8.3125 C 23.632812 -8.082031 23.660156 -7.8125 23.484375 -7.5 L 23.359375 -7.296875 C 22.960938 -6.648438 22.414062 -5.882812 21.71875 -5 C 21.019531 -4.113281 20.21875 -3.25 19.3125 -2.40625 C 18.414062 -1.5625 17.484375 -0.859375 16.515625 -0.296875 C 15.546875 0.265625 14.609375 0.546875 13.703125 0.546875 C 12.742188 0.546875 11.84375 0.0820312 11 -0.84375 C 10.5 -1.40625 10.160156 -1.992188 9.984375 -2.609375 C 9.816406 -3.234375 9.90625 -3.910156 10.25 -4.640625 C 10.78125 -5.765625 11.492188 -6.820312 12.390625 -7.8125 C 13.296875 -8.8125 14.070312 -9.804688 14.71875 -10.796875 C 13.84375 -10.203125 12.859375 -9.46875 11.765625 -8.59375 C 10.671875 -7.726562 9.578125 -6.816406 8.484375 -5.859375 C 7.410156 -4.253906 6.507812 -2.9375 5.78125 -1.90625 C 5.050781 -0.882812 4.429688 -0.125 3.921875 0.375 Z M 3.921875 0.375 "/></g></g></g><g fill="#000000" fill-opacity="1"><g transform="translate(24.432955, 25.85393)"><g><path d="M 10.671875 -18.21875 C 10.472656 -18.414062 10.5 -18.65625 10.75 -18.9375 C 11.289062 -19.582031 11.875 -20.351562 12.5 -21.25 C 13.132812 -22.15625 13.632812 -22.914062 14 -23.53125 C 14.113281 -23.695312 14.253906 -23.753906 14.421875 -23.703125 C 15.546875 -23.253906 16.320312 -22.660156 16.75 -21.921875 C 17.019531 -21.421875 16.929688 -20.90625 16.484375 -20.375 C 15.472656 -19.300781 14.769531 -18.640625 14.375 -18.390625 C 14.007812 -18.160156 13.65625 -18.007812 13.3125 -17.9375 C 12.976562 -17.875 12.585938 -17.84375 12.140625 -17.84375 C 11.941406 -17.84375 11.675781 -17.875 11.34375 -17.9375 C 11.007812 -18.007812 10.785156 -18.101562 10.671875 -18.21875 Z M 4.21875 1.4375 C 3.769531 1.4375 3.316406 1.335938 2.859375 1.140625 C 2.410156 0.941406 2.003906 0.71875 1.640625 0.46875 C 1.273438 0.1875 0.96875 -0.0859375 0.71875 -0.359375 C 0.46875 -0.628906 0.269531 -0.90625 0.125 -1.1875 C -0.289062 -2 -0.328125 -2.925781 0.015625 -3.96875 C 0.367188 -5.007812 1.164062 -6.34375 2.40625 -7.96875 C 3.5625 -9.519531 4.515625 -10.851562 5.265625 -11.96875 C 6.023438 -13.09375 6.546875 -13.9375 6.828125 -14.5 C 7.085938 -14.976562 7.28125 -15.265625 7.40625 -15.359375 C 7.53125 -15.460938 7.734375 -15.472656 8.015625 -15.390625 C 8.578125 -15.191406 9.140625 -15.015625 9.703125 -14.859375 C 10.265625 -14.710938 10.6875 -14.566406 10.96875 -14.421875 C 11.5 -14.140625 11.773438 -13.6875 11.796875 -13.0625 C 11.828125 -12.445312 11.476562 -11.648438 10.75 -10.671875 C 10.25 -9.992188 9.6875 -9.238281 9.0625 -8.40625 C 8.445312 -7.582031 7.859375 -6.734375 7.296875 -5.859375 C 6.734375 -4.984375 6.25 -4.144531 5.84375 -3.34375 C 5.4375 -2.550781 5.191406 -1.859375 5.109375 -1.265625 C 6.085938 -1.398438 7.25 -1.9375 8.59375 -2.875 C 9.945312 -3.820312 11.539062 -5.519531 13.375 -7.96875 L 13.5 -8.140625 C 13.632812 -8.335938 13.738281 -8.445312 13.8125 -8.46875 C 13.882812 -8.5 13.945312 -8.488281 14 -8.4375 L 14.125 -8.3125 C 14.351562 -8.082031 14.382812 -7.8125 14.21875 -7.5 L 14.078125 -7.296875 C 13.628906 -6.566406 13.019531 -5.707031 12.25 -4.71875 C 11.476562 -3.738281 10.617188 -2.773438 9.671875 -1.828125 C 8.734375 -0.890625 7.785156 -0.113281 6.828125 0.5 C 5.867188 1.125 5 1.4375 4.21875 1.4375 Z M 4.21875 1.4375 "/></g></g></g><g fill="#000000" fill-opacity="1"><g transform="translate(35.395679, 25.85393)"><g><path d="M 5.859375 1.390625 C 4.898438 1.390625 4.160156 1.238281 3.640625 0.9375 C 3.128906 0.644531 2.546875 0.148438 1.890625 -0.546875 C 0.859375 -1.753906 0.316406 -3.082031 0.265625 -4.53125 C 0.222656 -5.976562 0.820312 -7.53125 2.0625 -9.1875 C 2.90625 -10.289062 3.914062 -11.304688 5.09375 -12.234375 C 6.28125 -13.160156 7.484375 -13.894531 8.703125 -14.4375 C 9.929688 -14.988281 11.023438 -15.265625 11.984375 -15.265625 C 12.847656 -15.265625 13.757812 -14.882812 14.71875 -14.125 C 15.53125 -13.507812 15.929688 -13.003906 15.921875 -12.609375 C 15.910156 -12.210938 15.71875 -11.972656 15.34375 -11.890625 C 13.96875 -11.523438 12.660156 -10.976562 11.421875 -10.25 C 10.191406 -9.519531 9.082031 -8.691406 8.09375 -7.765625 C 7.113281 -6.835938 6.320312 -5.882812 5.71875 -4.90625 C 5.113281 -3.9375 4.769531 -3.019531 4.6875 -2.15625 C 4.90625 -2.039062 5.191406 -1.941406 5.546875 -1.859375 C 5.898438 -1.773438 6.316406 -1.734375 6.796875 -1.734375 C 7.523438 -1.734375 8.460938 -1.976562 9.609375 -2.46875 C 10.765625 -2.957031 11.96875 -3.671875 13.21875 -4.609375 C 14.46875 -5.554688 15.570312 -6.675781 16.53125 -7.96875 L 16.65625 -8.140625 C 16.800781 -8.335938 16.90625 -8.445312 16.96875 -8.46875 C 17.039062 -8.5 17.101562 -8.488281 17.15625 -8.4375 L 17.296875 -8.3125 C 17.515625 -8.082031 17.539062 -7.8125 17.375 -7.5 L 17.25 -7.296875 C 16.71875 -6.421875 16.007812 -5.476562 15.125 -4.46875 C 14.238281 -3.457031 13.257812 -2.507812 12.1875 -1.625 C 11.113281 -0.738281 10.03125 -0.015625 8.9375 0.546875 C 7.84375 1.109375 6.816406 1.390625 5.859375 1.390625 Z M 5.859375 1.390625 "/></g></g></g><g fill="#000000" fill-opacity="1"><g transform="translate(49.520733, 25.85393)"><g><path d="M 5.984375 1.046875 C 5.085938 1.046875 4.316406 0.878906 3.671875 0.546875 C 3.023438 0.210938 2.421875 -0.25 1.859375 -0.84375 C 0.867188 -1.914062 0.375 -3.164062 0.375 -4.59375 C 0.375 -5.320312 0.519531 -6.09375 0.8125 -6.90625 C 1.113281 -7.726562 1.585938 -8.578125 2.234375 -9.453125 C 2.941406 -10.398438 3.78125 -11.296875 4.75 -12.140625 C 5.71875 -12.984375 6.726562 -13.679688 7.78125 -14.234375 C 8.832031 -14.785156 9.835938 -15.0625 10.796875 -15.0625 C 11.492188 -15.0625 12.1875 -14.890625 12.875 -14.546875 C 13.570312 -14.210938 14.0625 -13.820312 14.34375 -13.375 C 14.925781 -13.175781 15.359375 -12.773438 15.640625 -12.171875 C 15.921875 -11.566406 16.0625 -10.882812 16.0625 -10.125 C 16.0625 -9.28125 15.894531 -8.378906 15.5625 -7.421875 C 15.226562 -6.460938 14.820312 -5.578125 14.34375 -4.765625 C 13.320312 -3.023438 12.082031 -1.617188 10.625 -0.546875 C 9.164062 0.515625 7.617188 1.046875 5.984375 1.046875 Z M 7.171875 -6.03125 C 6.722656 -5.320312 6.367188 -4.617188 6.109375 -3.921875 C 5.859375 -3.222656 5.789062 -2.5625 5.90625 -1.9375 C 6.96875 -2.21875 8 -2.6875 9 -3.34375 C 10 -4.007812 10.898438 -4.785156 11.703125 -5.671875 C 12.503906 -6.554688 13.144531 -7.46875 13.625 -8.40625 C 14.101562 -9.351562 14.34375 -10.234375 14.34375 -11.046875 C 14.34375 -11.691406 14.144531 -12.085938 13.75 -12.234375 C 12.789062 -11.921875 11.707031 -11.207031 10.5 -10.09375 C 9.289062 -8.988281 8.179688 -7.632812 7.171875 -6.03125 Z M 7.171875 -6.03125 "/></g></g></g><g fill="#000000" fill-opacity="1"><g transform="translate(65.964819, 25.85393)"><g><path d="M 0.921875 0.84375 C 0.617188 0.84375 0.257812 0.78125 -0.15625 0.65625 C -0.582031 0.53125 -0.925781 0.378906 -1.1875 0.203125 C -1.46875 -0.015625 -1.519531 -0.28125 -1.34375 -0.59375 C -1.039062 -1.289062 -0.640625 -2.0625 -0.140625 -2.90625 C 0.347656 -3.75 0.742188 -4.46875 1.046875 -5.0625 C 1.304688 -5.425781 1.585938 -5.582031 1.890625 -5.53125 C 2.285156 -5.4375 2.722656 -5.296875 3.203125 -5.109375 C 3.679688 -4.929688 4.078125 -4.757812 4.390625 -4.59375 C 4.640625 -4.457031 4.832031 -4.273438 4.96875 -4.046875 C 5.113281 -3.828125 5.113281 -3.53125 4.96875 -3.15625 C 4.863281 -2.789062 4.65625 -2.367188 4.34375 -1.890625 C 4.03125 -1.421875 3.726562 -0.992188 3.4375 -0.609375 C 3.144531 -0.234375 2.925781 0.0234375 2.78125 0.171875 C 2.414062 0.453125 2.09375 0.632812 1.8125 0.71875 C 1.53125 0.800781 1.234375 0.84375 0.921875 0.84375 Z M 0.921875 0.84375 "/></g></g></g><g clip-path="url(#975943f9e4)"><path fill="#000000" d="M 20.195312 30.933594 C 19.109375 30.945312 18.191406 30.96875 17.503906 31 C 17.308594 31.011719 16.96875 31.027344 16.742188 31.035156 C 16.160156 31.0625 14.011719 31.199219 13.167969 31.261719 C 13.042969 31.269531 12.691406 31.292969 12.386719 31.3125 C 12.085938 31.332031 11.804688 31.351562 11.761719 31.355469 C 11.714844 31.363281 11.21875 31.402344 10.652344 31.445312 C 10.089844 31.484375 9.320312 31.542969 8.945312 31.574219 C 8.570312 31.601562 7.875 31.652344 7.398438 31.6875 C 5.890625 31.792969 5.234375 31.851562 4.679688 31.933594 C 4.488281 31.960938 4.359375 31.984375 4.339844 32.003906 C 4.320312 32.019531 4.230469 32.039062 4.109375 32.054688 C 3.617188 32.113281 3.410156 32.152344 3.148438 32.246094 C 2.984375 32.308594 2.972656 32.316406 2.929688 32.386719 C 2.898438 32.449219 2.890625 32.472656 2.90625 32.496094 C 2.921875 32.519531 2.921875 32.53125 2.902344 32.546875 C 2.867188 32.574219 2.867188 32.65625 2.902344 32.683594 C 2.921875 32.703125 2.921875 32.710938 2.902344 32.726562 C 2.863281 32.757812 2.878906 32.792969 2.949219 32.859375 C 2.988281 32.890625 3.015625 32.925781 3.007812 32.9375 C 2.996094 32.976562 3.015625 33.015625 3.066406 33.039062 C 3.199219 33.105469 3.929688 33.132812 4.492188 33.09375 C 4.707031 33.078125 5.089844 33.054688 5.34375 33.039062 C 5.597656 33.027344 5.847656 33.011719 5.902344 33.007812 C 5.953125 33.003906 6.097656 32.992188 6.21875 32.988281 C 6.339844 32.984375 6.492188 32.976562 6.554688 32.972656 C 6.675781 32.964844 6.941406 32.953125 7.308594 32.9375 C 7.425781 32.933594 7.632812 32.925781 7.769531 32.917969 C 8.011719 32.90625 8.089844 32.917969 7.898438 32.9375 C 7.527344 32.972656 7.546875 32.976562 8.042969 32.96875 C 9.175781 32.953125 11.265625 32.847656 12.546875 32.746094 C 12.839844 32.722656 13.246094 32.691406 13.449219 32.675781 C 13.65625 32.664062 14.054688 32.628906 14.335938 32.605469 C 14.617188 32.582031 15.074219 32.546875 15.351562 32.527344 C 15.632812 32.511719 16.152344 32.46875 16.511719 32.441406 C 17.144531 32.394531 17.855469 32.34375 18.714844 32.292969 C 18.941406 32.28125 19.132812 32.265625 19.136719 32.261719 C 19.144531 32.25 18.65625 32.242188 18.542969 32.25 C 18.511719 32.253906 18.484375 32.246094 18.484375 32.238281 C 18.484375 32.230469 18.5 32.222656 18.519531 32.222656 C 18.546875 32.226562 18.886719 32.207031 19.160156 32.191406 C 19.222656 32.1875 19.410156 32.179688 19.574219 32.171875 C 19.742188 32.167969 19.957031 32.160156 20.050781 32.15625 C 20.148438 32.152344 20.417969 32.144531 20.644531 32.136719 C 20.875 32.132812 21.109375 32.125 21.167969 32.121094 C 21.226562 32.117188 21.523438 32.109375 21.832031 32.105469 C 22.136719 32.097656 22.488281 32.089844 22.609375 32.085938 C 22.734375 32.082031 23.207031 32.074219 23.664062 32.070312 C 24.121094 32.0625 24.59375 32.054688 24.714844 32.050781 C 25.828125 32.015625 33.726562 32.003906 34.839844 32.039062 C 35.234375 32.050781 35.804688 32.066406 36.105469 32.078125 C 36.769531 32.097656 37.585938 32.109375 37.550781 32.101562 C 37.535156 32.097656 37.394531 32.082031 37.238281 32.070312 L 36.957031 32.046875 L 37.222656 32.042969 C 37.367188 32.042969 37.503906 32.03125 37.523438 32.023438 C 37.550781 32.011719 37.546875 32.007812 37.5 32.011719 C 37.46875 32.015625 37.445312 32.011719 37.445312 32.003906 C 37.445312 31.996094 37.492188 31.992188 37.554688 31.992188 C 37.625 31.992188 37.65625 31.996094 37.640625 32.007812 C 37.625 32.015625 37.644531 32.019531 37.691406 32.011719 C 37.8125 32 39.09375 32.113281 39.585938 32.179688 C 39.65625 32.1875 39.695312 32.1875 39.71875 32.171875 C 39.734375 32.160156 39.773438 32.152344 39.808594 32.160156 C 39.847656 32.167969 39.867188 32.164062 39.867188 32.148438 C 39.867188 32.136719 39.851562 32.128906 39.828125 32.128906 C 39.804688 32.128906 39.769531 32.117188 39.75 32.105469 C 39.71875 32.078125 39.71875 32.078125 39.757812 32.066406 C 39.8125 32.050781 39.808594 32.03125 39.75 32.019531 C 39.132812 31.890625 36.542969 31.65625 33.664062 31.46875 C 33.363281 31.449219 32.921875 31.417969 32.683594 31.402344 C 32.441406 31.382812 32.078125 31.355469 31.867188 31.339844 C 31.660156 31.324219 31.347656 31.300781 31.175781 31.289062 C 31.007812 31.273438 30.667969 31.25 30.425781 31.234375 C 30.183594 31.222656 29.738281 31.195312 29.441406 31.175781 C 28.0625 31.085938 27.5 31.0625 25.832031 31.027344 C 25.546875 31.019531 25.289062 31.011719 25.261719 31.011719 C 25.234375 31.007812 25.058594 31.007812 24.875 31.003906 C 24.671875 31.003906 24.542969 30.996094 24.546875 30.984375 C 24.554688 30.976562 24.542969 30.96875 24.527344 30.96875 C 24.386719 30.972656 24.171875 30.960938 24.070312 30.949219 C 23.917969 30.925781 21.691406 30.917969 20.195312 30.933594 Z M 18.136719 31.644531 C 18.128906 31.652344 18.007812 31.664062 17.867188 31.667969 C 17.726562 31.675781 17.578125 31.683594 17.539062 31.6875 C 17.5 31.691406 17.355469 31.699219 17.21875 31.703125 C 17.085938 31.710938 16.933594 31.71875 16.882812 31.722656 C 16.835938 31.726562 16.714844 31.734375 16.617188 31.738281 C 16.519531 31.746094 16.414062 31.75 16.378906 31.757812 C 16.347656 31.761719 16.230469 31.769531 16.125 31.773438 C 16.015625 31.78125 15.90625 31.789062 15.875 31.792969 C 15.847656 31.792969 15.746094 31.800781 15.652344 31.808594 C 15.492188 31.820312 15.398438 31.824219 15.160156 31.84375 C 15.09375 31.847656 14.972656 31.855469 14.882812 31.859375 C 14.660156 31.875 14.472656 31.886719 14.378906 31.894531 C 14.289062 31.902344 13.925781 31.933594 13.707031 31.949219 C 13.625 31.953125 13.519531 31.960938 13.476562 31.964844 C 13.433594 31.96875 13.328125 31.976562 13.246094 31.980469 C 13.164062 31.988281 13.050781 31.996094 13 32 C 12.945312 32.003906 12.835938 32.011719 12.761719 32.015625 C 12.5625 32.03125 12.441406 32.039062 12.050781 32.070312 C 11.613281 32.101562 11.007812 32.140625 10.761719 32.15625 C 10.652344 32.160156 10.5 32.167969 10.421875 32.171875 C 10.34375 32.179688 10.226562 32.183594 10.15625 32.191406 C 9.828125 32.210938 9.539062 32.21875 9.546875 32.210938 C 9.558594 32.199219 9.691406 32.1875 9.917969 32.171875 C 10.003906 32.167969 10.097656 32.160156 10.132812 32.15625 C 10.164062 32.152344 10.261719 32.144531 10.34375 32.136719 C 10.628906 32.121094 10.722656 32.113281 10.820312 32.105469 C 10.875 32.097656 11.261719 32.074219 11.679688 32.042969 C 12.101562 32.015625 12.597656 31.980469 12.785156 31.964844 C 13.761719 31.890625 15.011719 31.804688 16.035156 31.738281 C 16.105469 31.734375 16.242188 31.726562 16.34375 31.722656 C 16.445312 31.714844 16.667969 31.707031 16.832031 31.695312 C 17.214844 31.675781 17.421875 31.664062 17.742188 31.652344 C 17.882812 31.644531 18 31.636719 18.003906 31.636719 C 18.011719 31.628906 18.144531 31.636719 18.136719 31.644531 Z M 27.054688 31.695312 C 28.132812 31.714844 28.492188 31.722656 29.789062 31.757812 C 31.300781 31.796875 31.855469 31.820312 32.070312 31.847656 C 32.144531 31.855469 32.152344 31.859375 32.117188 31.871094 C 32.089844 31.878906 32.082031 31.882812 32.09375 31.886719 C 32.105469 31.886719 32.117188 31.894531 32.117188 31.902344 C 32.117188 31.925781 32.152344 31.925781 26.167969 31.929688 C 23.710938 31.933594 21.5625 31.9375 21.398438 31.945312 C 21.152344 31.953125 19.703125 31.964844 19.578125 31.957031 C 19.511719 31.953125 19.566406 31.933594 19.652344 31.929688 C 19.96875 31.914062 20.183594 31.902344 20.484375 31.894531 C 20.675781 31.886719 20.855469 31.882812 20.882812 31.878906 C 20.914062 31.875 21.003906 31.871094 21.082031 31.871094 C 21.203125 31.871094 21.226562 31.867188 21.21875 31.84375 C 21.210938 31.824219 21.21875 31.816406 21.238281 31.816406 C 21.257812 31.816406 21.265625 31.824219 21.257812 31.84375 C 21.25 31.863281 21.265625 31.871094 21.34375 31.871094 C 21.425781 31.871094 21.441406 31.863281 21.449219 31.828125 L 21.464844 31.792969 L 21.488281 31.878906 L 21.5 31.839844 C 21.507812 31.804688 21.519531 31.796875 21.578125 31.800781 C 21.652344 31.804688 22.242188 31.789062 22.523438 31.773438 C 22.613281 31.769531 22.960938 31.761719 23.292969 31.753906 C 23.621094 31.746094 23.925781 31.742188 23.964844 31.738281 C 24.003906 31.738281 24.222656 31.734375 24.449219 31.730469 C 24.683594 31.730469 24.859375 31.722656 24.859375 31.714844 C 24.859375 31.703125 24.488281 31.699219 23.933594 31.695312 C 23.425781 31.695312 23.007812 31.691406 23 31.6875 C 22.988281 31.671875 26.105469 31.679688 27.054688 31.695312 Z M 21.371094 31.824219 C 21.371094 31.828125 21.363281 31.839844 21.355469 31.84375 C 21.34375 31.847656 21.335938 31.84375 21.335938 31.835938 C 21.335938 31.824219 21.34375 31.816406 21.355469 31.816406 C 21.363281 31.816406 21.371094 31.820312 21.371094 31.824219 Z M 17.039062 31.882812 C 17.027344 31.886719 17.003906 31.886719 16.988281 31.882812 C 16.96875 31.875 16.980469 31.871094 17.007812 31.871094 C 17.039062 31.871094 17.050781 31.875 17.039062 31.882812 Z M 16.691406 31.898438 C 16.6875 31.902344 16.671875 31.902344 16.660156 31.898438 C 16.644531 31.894531 16.652344 31.886719 16.671875 31.886719 C 16.691406 31.886719 16.699219 31.890625 16.691406 31.898438 Z M 32.1875 31.902344 C 32.1875 31.914062 32.179688 31.921875 32.171875 31.921875 C 32.160156 31.921875 32.148438 31.914062 32.140625 31.902344 C 32.136719 31.894531 32.144531 31.886719 32.15625 31.886719 C 32.175781 31.886719 32.1875 31.894531 32.1875 31.902344 Z M 16.5 31.917969 C 16.484375 31.917969 16.453125 31.917969 16.4375 31.917969 C 16.421875 31.910156 16.433594 31.90625 16.46875 31.90625 C 16.5 31.90625 16.515625 31.910156 16.5 31.917969 Z M 16.242188 31.933594 C 16.21875 31.9375 16.179688 31.9375 16.15625 31.933594 C 16.125 31.929688 16.144531 31.925781 16.195312 31.925781 C 16.242188 31.925781 16.265625 31.929688 16.242188 31.933594 Z M 19.515625 31.960938 C 19.492188 31.984375 19.46875 31.964844 19.484375 31.941406 C 19.492188 31.929688 19.503906 31.925781 19.515625 31.933594 C 19.527344 31.9375 19.527344 31.949219 19.515625 31.960938 Z M 15.976562 31.949219 C 15.953125 31.953125 15.914062 31.953125 15.890625 31.949219 C 15.859375 31.949219 15.878906 31.945312 15.929688 31.945312 C 15.976562 31.945312 16 31.949219 15.976562 31.949219 Z M 35.113281 31.949219 C 35.101562 31.953125 35.078125 31.953125 35.066406 31.949219 C 35.054688 31.945312 35.066406 31.941406 35.089844 31.941406 C 35.113281 31.941406 35.121094 31.945312 35.113281 31.949219 Z M 36.792969 31.949219 C 36.78125 31.953125 36.761719 31.953125 36.75 31.949219 C 36.738281 31.945312 36.746094 31.941406 36.769531 31.941406 C 36.796875 31.941406 36.804688 31.945312 36.792969 31.949219 Z M 15.703125 31.96875 C 15.675781 31.972656 15.632812 31.972656 15.605469 31.96875 C 15.578125 31.964844 15.601562 31.960938 15.652344 31.960938 C 15.707031 31.960938 15.730469 31.964844 15.703125 31.96875 Z M 35.535156 31.96875 C 35.503906 31.972656 35.453125 31.972656 35.421875 31.96875 C 35.390625 31.964844 35.414062 31.960938 35.480469 31.960938 C 35.542969 31.960938 35.566406 31.964844 35.535156 31.96875 Z M 37.09375 31.96875 C 37.070312 31.972656 37.03125 31.972656 37.007812 31.96875 C 36.976562 31.964844 36.996094 31.960938 37.046875 31.960938 C 37.09375 31.960938 37.117188 31.964844 37.09375 31.96875 Z M 15.394531 31.984375 C 15.382812 31.988281 15.359375 31.988281 15.347656 31.984375 C 15.335938 31.980469 15.347656 31.976562 15.371094 31.976562 C 15.394531 31.976562 15.40625 31.980469 15.394531 31.984375 Z M 15.472656 31.984375 C 15.464844 31.988281 15.449219 31.992188 15.4375 31.984375 C 15.425781 31.980469 15.429688 31.976562 15.449219 31.976562 C 15.46875 31.972656 15.480469 31.980469 15.472656 31.984375 Z M 35.863281 31.984375 C 35.839844 31.988281 35.789062 31.988281 35.757812 31.984375 C 35.726562 31.980469 35.746094 31.980469 35.804688 31.980469 C 35.863281 31.980469 35.890625 31.980469 35.863281 31.984375 Z M 37.34375 31.984375 C 37.320312 31.988281 37.28125 31.988281 37.253906 31.984375 C 37.226562 31.980469 37.246094 31.980469 37.292969 31.980469 C 37.34375 31.980469 37.363281 31.980469 37.34375 31.984375 Z M 36.191406 32.003906 C 36.167969 32.007812 36.128906 32.007812 36.101562 32.003906 C 36.074219 32 36.09375 31.996094 36.140625 31.996094 C 36.191406 31.996094 36.214844 32 36.191406 32.003906 Z M 36.476562 32.019531 C 36.453125 32.023438 36.417969 32.023438 36.394531 32.019531 C 36.371094 32.015625 36.390625 32.011719 36.433594 32.011719 C 36.480469 32.011719 36.496094 32.015625 36.476562 32.019531 Z M 36.792969 32.039062 C 36.769531 32.042969 36.730469 32.042969 36.707031 32.039062 C 36.675781 32.035156 36.695312 32.03125 36.746094 32.03125 C 36.792969 32.03125 36.816406 32.035156 36.792969 32.039062 Z M 9.476562 32.214844 C 9.476562 32.226562 9.4375 32.230469 9.382812 32.230469 L 9.289062 32.230469 L 9.371094 32.214844 C 9.414062 32.210938 9.457031 32.203125 9.464844 32.203125 C 9.472656 32.199219 9.476562 32.207031 9.476562 32.214844 Z M 9.53125 32.207031 C 9.53125 32.210938 9.523438 32.21875 9.511719 32.226562 C 9.503906 32.230469 9.496094 32.226562 9.496094 32.21875 C 9.496094 32.207031 9.503906 32.199219 9.511719 32.199219 C 9.523438 32.199219 9.53125 32.203125 9.53125 32.207031 Z M 9.28125 32.222656 C 9.28125 32.230469 9.273438 32.238281 9.265625 32.242188 C 9.253906 32.246094 9.246094 32.246094 9.246094 32.234375 C 9.246094 32.226562 9.253906 32.214844 9.265625 32.214844 C 9.273438 32.214844 9.28125 32.21875 9.28125 32.222656 Z M 18.445312 32.246094 C 18.429688 32.25 18.402344 32.25 18.386719 32.246094 C 18.367188 32.242188 18.382812 32.238281 18.414062 32.238281 C 18.449219 32.238281 18.464844 32.242188 18.445312 32.246094 Z M 7.117188 32.539062 C 7.113281 32.542969 7.097656 32.546875 7.082031 32.542969 C 7.070312 32.535156 7.074219 32.53125 7.09375 32.53125 C 7.113281 32.527344 7.125 32.535156 7.117188 32.539062 Z M 7.1875 32.539062 C 7.183594 32.542969 7.167969 32.546875 7.152344 32.542969 C 7.140625 32.535156 7.144531 32.53125 7.164062 32.53125 C 7.183594 32.527344 7.195312 32.535156 7.1875 32.539062 Z M 6.921875 32.558594 C 6.886719 32.5625 6.832031 32.5625 6.796875 32.558594 C 6.769531 32.554688 6.796875 32.550781 6.867188 32.550781 C 6.933594 32.550781 6.960938 32.554688 6.921875 32.558594 Z M 6.414062 32.589844 C 5.664062 32.648438 4.832031 32.738281 4.804688 32.765625 C 4.800781 32.773438 4.890625 32.773438 5.007812 32.765625 C 5.125 32.761719 5.296875 32.75 5.386719 32.746094 C 5.480469 32.742188 5.601562 32.730469 5.660156 32.726562 C 5.738281 32.71875 5.757812 32.722656 5.757812 32.746094 C 5.757812 32.757812 5.75 32.773438 5.738281 32.777344 C 5.714844 32.789062 5.886719 32.78125 6.15625 32.761719 C 6.234375 32.753906 6.296875 32.753906 6.289062 32.761719 C 6.28125 32.769531 5.46875 32.839844 5.289062 32.84375 C 5.242188 32.84375 5.171875 32.851562 5.132812 32.859375 C 5.09375 32.867188 4.984375 32.878906 4.890625 32.886719 C 4.695312 32.898438 4.679688 32.902344 4.484375 32.925781 C 4.402344 32.933594 4.238281 32.949219 4.121094 32.953125 C 4.003906 32.960938 3.777344 32.972656 3.617188 32.980469 C 3.359375 33 3.3125 33 3.1875 32.972656 C 3.082031 32.949219 3.042969 32.929688 3.023438 32.902344 C 2.96875 32.820312 3.023438 32.804688 3.433594 32.796875 C 3.597656 32.792969 3.90625 32.777344 4.113281 32.757812 C 4.433594 32.726562 5.546875 32.636719 6.273438 32.585938 C 6.382812 32.574219 6.527344 32.570312 6.589844 32.570312 C 6.65625 32.570312 6.574219 32.578125 6.414062 32.589844 Z M 3.226562 32.667969 C 3.226562 32.683594 3.121094 32.703125 3.058594 32.703125 C 3.027344 32.699219 3.027344 32.699219 3.058594 32.675781 C 3.089844 32.652344 3.226562 32.648438 3.226562 32.667969 Z M 5.867188 32.742188 C 5.867188 32.75 5.851562 32.753906 5.839844 32.753906 C 5.824219 32.753906 5.808594 32.753906 5.800781 32.757812 C 5.792969 32.757812 5.785156 32.75 5.78125 32.742188 C 5.777344 32.730469 5.792969 32.726562 5.820312 32.726562 C 5.847656 32.726562 5.867188 32.734375 5.867188 32.742188 Z M 6.355469 32.765625 C 6.351562 32.769531 6.335938 32.773438 6.324219 32.765625 C 6.308594 32.761719 6.3125 32.757812 6.332031 32.757812 C 6.351562 32.753906 6.363281 32.761719 6.355469 32.765625 Z M 6.355469 32.765625 " fill-opacity="1" fill-rule="nonzero"/></g><path fill="#000000" d="M 24.875 31.714844 C 24.875 31.722656 24.886719 31.730469 24.902344 31.730469 C 24.914062 31.730469 24.929688 31.722656 24.9375 31.714844 C 24.941406 31.710938 24.929688 31.703125 24.910156 31.703125 C 24.890625 31.703125 24.875 31.710938 24.875 31.714844 Z M 24.875 31.714844 " fill-opacity="1" fill-rule="nonzero"/><path fill="#000000" d="M 5.625 32.789062 C 5.613281 32.8125 5.636719 32.8125 5.671875 32.789062 C 5.695312 32.777344 5.695312 32.773438 5.667969 32.773438 C 5.652344 32.773438 5.632812 32.777344 5.625 32.789062 Z M 5.625 32.789062 " fill-opacity="1" fill-rule="nonzero"/><path fill="#000000" d="M 37.566406 32.027344 C 37.566406 32.035156 37.578125 32.039062 37.585938 32.035156 C 37.59375 32.027344 37.601562 32.019531 37.601562 32.015625 C 37.601562 32.011719 37.59375 32.007812 37.585938 32.007812 C 37.578125 32.007812 37.566406 32.015625 37.566406 32.027344 Z M 37.566406 32.027344 " fill-opacity="1" fill-rule="nonzero"/></svg>