<svg xmlns="http://www.w3.org/2000/svg" xmlns:xlink="http://www.w3.org/1999/xlink" width="100" zoomAndPan="magnify" viewBox="0 0 75 37.5" height="50" preserveAspectRatio="xMidYMid meet" version="1.0"><defs><g/><clipPath id="4cce3da8f0"><path d="M 2.863281 30.917969 L 39.867188 30.917969 L 39.867188 33.136719 L 2.863281 33.136719 Z M 2.863281 30.917969 " clip-rule="nonzero"/></clipPath></defs><g fill="#ffffff" fill-opacity="1"><g transform="translate(4.194079, 25.85393)"><g><path d="M 3.921875 0.375 C 3.472656 0.820312 3.125 1.046875 2.875 1.046875 C 2.5 1.046875 2.128906 0.953125 1.765625 0.765625 C 1.398438 0.585938 1.050781 0.359375 0.71875 0.078125 C 0.351562 -0.222656 0.0390625 -0.570312 -0.21875 -0.96875 C -0.488281 -1.363281 -0.625 -1.8125 -0.625 -2.3125 C -0.625 -2.9375 -0.335938 -3.742188 0.234375 -4.734375 C 0.804688 -5.734375 1.53125 -6.8125 2.40625 -7.96875 C 3.726562 -9.707031 4.84375 -11.207031 5.75 -12.46875 C 6.664062 -13.738281 7.265625 -14.613281 7.546875 -15.09375 C 7.691406 -15.351562 7.890625 -15.484375 8.140625 -15.484375 C 8.585938 -15.484375 9.140625 -15.316406 9.796875 -14.984375 C 10.460938 -14.660156 11.0625 -14.25 11.59375 -13.75 C 11.9375 -13.40625 12.175781 -13.066406 12.3125 -12.734375 C 12.457031 -12.398438 12.429688 -11.992188 12.234375 -11.515625 C 13.359375 -12.109375 14.363281 -12.585938 15.25 -12.953125 C 16.132812 -13.316406 16.800781 -13.5 17.25 -13.5 C 17.945312 -13.5 18.609375 -13.21875 19.234375 -12.65625 C 19.710938 -12.207031 19.972656 -11.765625 20.015625 -11.328125 C 20.054688 -10.890625 19.90625 -10.304688 19.5625 -9.578125 C 19.226562 -8.847656 18.765625 -8.023438 18.171875 -7.109375 C 17.585938 -6.191406 17.019531 -5.289062 16.46875 -4.40625 C 15.914062 -3.519531 15.554688 -2.738281 15.390625 -2.0625 C 16.378906 -2.289062 17.46875 -2.847656 18.65625 -3.734375 C 19.851562 -4.617188 21.179688 -6.03125 22.640625 -7.96875 L 22.765625 -8.140625 C 22.910156 -8.335938 23.015625 -8.445312 23.078125 -8.46875 C 23.148438 -8.5 23.21875 -8.488281 23.28125 -8.4375 L 23.40625 -8.3125 C 23.632812 -8.082031 23.660156 -7.8125 23.484375 -7.5 L 23.359375 -7.296875 C 22.960938 -6.648438 22.414062 -5.882812 21.71875 -5 C 21.019531 -4.113281 20.21875 -3.25 19.3125 -2.40625 C 18.414062 -1.5625 17.484375 -0.859375 16.515625 -0.296875 C 15.546875 0.265625 14.609375 0.546875 13.703125 0.546875 C 12.742188 0.546875 11.84375 0.0820312 11 -0.84375 C 10.5 -1.40625 10.160156 -1.992188 9.984375 -2.609375 C 9.816406 -3.234375 9.90625 -3.910156 10.25 -4.640625 C 10.78125 -5.765625 11.492188 -6.820312 12.390625 -7.8125 C 13.296875 -8.8125 14.070312 -9.804688 14.71875 -10.796875 C 13.84375 -10.203125 12.859375 -9.46875 11.765625 -8.59375 C 10.671875 -7.726562 9.578125 -6.816406 8.484375 -5.859375 C 7.410156 -4.253906 6.507812 -2.9375 5.78125 -1.90625 C 5.050781 -0.882812 4.429688 -0.125 3.921875 0.375 Z M 3.921875 0.375 "/></g></g></g><g fill="#ffffff" fill-opacity="1"><g transform="translate(24.432955, 25.85393)"><g><path d="M 10.671875 -18.21875 C 10.472656 -18.414062 10.5 -18.65625 10.75 -18.9375 C 11.289062 -19.582031 11.875 -20.351562 12.5 -21.25 C 13.132812 -22.15625 13.632812 -22.914062 14 -23.53125 C 14.113281 -23.695312 14.253906 -23.753906 14.421875 -23.703125 C 15.546875 -23.253906 16.320312 -22.660156 16.75 -21.921875 C 17.019531 -21.421875 16.929688 -20.90625 16.484375 -20.375 C 15.472656 -19.300781 14.769531 -18.640625 14.375 -18.390625 C 14.007812 -18.160156 13.65625 -18.007812 13.3125 -17.9375 C 12.976562 -17.875 12.585938 -17.84375 12.140625 -17.84375 C 11.941406 -17.84375 11.675781 -17.875 11.34375 -17.9375 C 11.007812 -18.007812 10.785156 -18.101562 10.671875 -18.21875 Z M 4.21875 1.4375 C 3.769531 1.4375 3.316406 1.335938 2.859375 1.140625 C 2.410156 0.941406 2.003906 0.71875 1.640625 0.46875 C 1.273438 0.1875 0.96875 -0.0859375 0.71875 -0.359375 C 0.46875 -0.628906 0.269531 -0.90625 0.125 -1.1875 C -0.289062 -2 -0.328125 -2.925781 0.015625 -3.96875 C 0.367188 -5.007812 1.164062 -6.34375 2.40625 -7.96875 C 3.5625 -9.519531 4.515625 -10.851562 5.265625 -11.96875 C 6.023438 -13.09375 6.546875 -13.9375 6.828125 -14.5 C 7.085938 -14.976562 7.28125 -15.265625 7.40625 -15.359375 C 7.53125 -15.460938 7.734375 -15.472656 8.015625 -15.390625 C 8.578125 -15.191406 9.140625 -15.015625 9.703125 -14.859375 C 10.265625 -14.710938 10.6875 -14.566406 10.96875 -14.421875 C 11.5 -14.140625 11.773438 -13.6875 11.796875 -13.0625 C 11.828125 -12.445312 11.476562 -11.648438 10.75 -10.671875 C 10.25 -9.992188 9.6875 -9.238281 9.0625 -8.40625 C 8.445312 -7.582031 7.859375 -6.734375 7.296875 -5.859375 C 6.734375 -4.984375 6.25 -4.144531 5.84375 -3.34375 C 5.4375 -2.550781 5.191406 -1.859375 5.109375 -1.265625 C 6.085938 -1.398438 7.25 -1.9375 8.59375 -2.875 C 9.945312 -3.820312 11.539062 -5.519531 13.375 -7.96875 L 13.5 -8.140625 C 13.632812 -8.335938 13.738281 -8.445312 13.8125 -8.46875 C 13.882812 -8.5 13.945312 -8.488281 14 -8.4375 L 14.125 -8.3125 C 14.351562 -8.082031 14.382812 -7.8125 14.21875 -7.5 L 14.078125 -7.296875 C 13.628906 -6.566406 13.019531 -5.707031 12.25 -4.71875 C 11.476562 -3.738281 10.617188 -2.773438 9.671875 -1.828125 C 8.734375 -0.890625 7.785156 -0.113281 6.828125 0.5 C 5.867188 1.125 5 1.4375 4.21875 1.4375 Z M 4.21875 1.4375 "/></g></g></g><g fill="#ffffff" fill-opacity="1"><g transform="translate(35.395679, 25.85393)"><g><path d="M 5.859375 1.390625 C 4.898438 1.390625 4.160156 1.238281 3.640625 0.9375 C 3.128906 0.644531 2.546875 0.148438 1.890625 -0.546875 C 0.859375 -1.753906 0.316406 -3.082031 0.265625 -4.53125 C 0.222656 -5.976562 0.820312 -7.53125 2.0625 -9.1875 C 2.90625 -10.289062 3.914062 -11.304688 5.09375 -12.234375 C 6.28125 -13.160156 7.484375 -13.894531 8.703125 -14.4375 C 9.929688 -14.988281 11.023438 -15.265625 11.984375 -15.265625 C 12.847656 -15.265625 13.757812 -14.882812 14.71875 -14.125 C 15.53125 -13.507812 15.929688 -13.003906 15.921875 -12.609375 C 15.910156 -12.210938 15.71875 -11.972656 15.34375 -11.890625 C 13.96875 -11.523438 12.660156 -10.976562 11.421875 -10.25 C 10.191406 -9.519531 9.082031 -8.691406 8.09375 -7.765625 C 7.113281 -6.835938 6.320312 -5.882812 5.71875 -4.90625 C 5.113281 -3.9375 4.769531 -3.019531 4.6875 -2.15625 C 4.90625 -2.039062 5.191406 -1.941406 5.546875 -1.859375 C 5.898438 -1.773438 6.316406 -1.734375 6.796875 -1.734375 C 7.523438 -1.734375 8.460938 -1.976562 9.609375 -2.46875 C 10.765625 -2.957031 11.96875 -3.671875 13.21875 -4.609375 C 14.46875 -5.554688 15.570312 -6.675781 16.53125 -7.96875 L 16.65625 -8.140625 C 16.800781 -8.335938 16.90625 -8.445312 16.96875 -8.46875 C 17.039062 -8.5 17.101562 -8.488281 17.15625 -8.4375 L 17.296875 -8.3125 C 17.515625 -8.082031 17.539062 -7.8125 17.375 -7.5 L 17.25 -7.296875 C 16.71875 -6.421875 16.007812 -5.476562 15.125 -4.46875 C 14.238281 -3.457031 13.257812 -2.507812 12.1875 -1.625 C 11.113281 -0.738281 10.03125 -0.015625 8.9375 0.546875 C 7.84375 1.109375 6.816406 1.390625 5.859375 1.390625 Z M 5.859375 1.390625 "/></g></g></g><g fill="#ffffff" fill-opacity="1"><g transform="translate(49.520733, 25.85393)"><g><path d="M 5.984375 1.046875 C 5.085938 1.046875 4.316406 0.878906 3.671875 0.546875 C 3.023438 0.210938 2.421875 -0.25 1.859375 -0.84375 C 0.867188 -1.914062 0.375 -3.164062 0.375 -4.59375 C 0.375 -5.320312 0.519531 -6.09375 0.8125 -6.90625 C 1.113281 -7.726562 1.585938 -8.578125 2.234375 -9.453125 C 2.941406 -10.398438 3.78125 -11.296875 4.75 -12.140625 C 5.71875 -12.984375 6.726562 -13.679688 7.78125 -14.234375 C 8.832031 -14.785156 9.835938 -15.0625 10.796875 -15.0625 C 11.492188 -15.0625 12.1875 -14.890625 12.875 -14.546875 C 13.570312 -14.210938 14.0625 -13.820312 14.34375 -13.375 C 14.925781 -13.175781 15.359375 -12.773438 15.640625 -12.171875 C 15.921875 -11.566406 16.0625 -10.882812 16.0625 -10.125 C 16.0625 -9.28125 15.894531 -8.378906 15.5625 -7.421875 C 15.226562 -6.460938 14.820312 -5.578125 14.34375 -4.765625 C 13.320312 -3.023438 12.082031 -1.617188 10.625 -0.546875 C 9.164062 0.515625 7.617188 1.046875 5.984375 1.046875 Z M 7.171875 -6.03125 C 6.722656 -5.320312 6.367188 -4.617188 6.109375 -3.921875 C 5.859375 -3.222656 5.789062 -2.5625 5.90625 -1.9375 C 6.96875 -2.21875 8 -2.6875 9 -3.34375 C 10 -4.007812 10.898438 -4.785156 11.703125 -5.671875 C 12.503906 -6.554688 13.144531 -7.46875 13.625 -8.40625 C 14.101562 -9.351562 14.34375 -10.234375 14.34375 -11.046875 C 14.34375 -11.691406 14.144531 -12.085938 13.75 -12.234375 C 12.789062 -11.921875 11.707031 -11.207031 10.5 -10.09375 C 9.289062 -8.988281 8.179688 -7.632812 7.171875 -6.03125 Z M 7.171875 -6.03125 "/></g></g></g><g fill="#ffffff" fill-opacity="1"><g transform="translate(65.964819, 25.85393)"><g><path d="M 0.921875 0.84375 C 0.617188 0.84375 0.257812 0.78125 -0.15625 0.65625 C -0.582031 0.53125 -0.925781 0.378906 -1.1875 0.203125 C -1.46875 -0.015625 -1.519531 -0.28125 -1.34375 -0.59375 C -1.039062 -1.289062 -0.640625 -2.0625 -0.140625 -2.90625 C 0.347656 -3.75 0.742188 -4.46875 1.046875 -5.0625 C 1.304688 -5.425781 1.585938 -5.582031 1.890625 -5.53125 C 2.285156 -5.4375 2.722656 -5.296875 3.203125 -5.109375 C 3.679688 -4.929688 4.078125 -4.757812 4.390625 -4.59375 C 4.640625 -4.457031 4.832031 -4.273438 4.96875 -4.046875 C 5.113281 -3.828125 5.113281 -3.53125 4.96875 -3.15625 C 4.863281 -2.789062 4.65625 -2.367188 4.34375 -1.890625 C 4.03125 -1.421875 3.726562 -0.992188 3.4375 -0.609375 C 3.144531 -0.234375 2.925781 0.0234375 2.78125 0.171875 C 2.414062 0.453125 2.09375 0.632812 1.8125 0.71875 C 1.53125 0.800781 1.234375 0.84375 0.921875 0.84375 Z M 0.921875 0.84375 "/></g></g></g><g clip-path="url(#4cce3da8f0)"><path fill="#ffffff" d="M 20.125 30.933594 C 19.042969 30.945312 18.128906 30.96875 17.445312 31.003906 C 17.25 31.011719 16.910156 31.027344 16.6875 31.039062 C 16.105469 31.066406 13.964844 31.203125 13.125 31.265625 C 13 31.277344 12.652344 31.300781 12.347656 31.320312 C 12.050781 31.339844 11.769531 31.359375 11.722656 31.363281 C 11.679688 31.371094 11.183594 31.410156 10.621094 31.453125 C 10.058594 31.496094 9.292969 31.554688 8.921875 31.585938 C 8.546875 31.613281 7.855469 31.664062 7.378906 31.699219 C 5.878906 31.808594 5.226562 31.867188 4.671875 31.949219 C 4.480469 31.976562 4.351562 32.003906 4.332031 32.019531 C 4.316406 32.035156 4.226562 32.054688 4.105469 32.070312 C 3.613281 32.132812 3.40625 32.171875 3.148438 32.269531 C 2.984375 32.332031 2.972656 32.339844 2.929688 32.410156 C 2.898438 32.472656 2.890625 32.496094 2.90625 32.519531 C 2.921875 32.542969 2.921875 32.554688 2.902344 32.570312 C 2.867188 32.601562 2.867188 32.683594 2.902344 32.710938 C 2.921875 32.730469 2.921875 32.738281 2.902344 32.753906 C 2.863281 32.785156 2.878906 32.824219 2.949219 32.890625 C 2.988281 32.921875 3.011719 32.957031 3.007812 32.96875 C 2.992188 33.007812 3.015625 33.046875 3.066406 33.074219 C 3.199219 33.140625 3.925781 33.167969 4.488281 33.128906 C 4.699219 33.113281 5.082031 33.089844 5.332031 33.074219 C 5.585938 33.058594 5.835938 33.042969 5.890625 33.039062 C 5.941406 33.035156 6.085938 33.027344 6.207031 33.019531 C 6.328125 33.015625 6.476562 33.007812 6.539062 33.003906 C 6.660156 32.996094 6.921875 32.984375 7.289062 32.96875 C 7.40625 32.964844 7.613281 32.957031 7.75 32.949219 C 7.988281 32.9375 8.070312 32.949219 7.878906 32.96875 C 7.507812 33.003906 7.527344 33.011719 8.023438 33 C 9.148438 32.984375 11.230469 32.878906 12.507812 32.773438 C 12.800781 32.75 13.203125 32.71875 13.40625 32.703125 C 13.613281 32.691406 14.007812 32.65625 14.289062 32.632812 C 14.570312 32.609375 15.027344 32.574219 15.300781 32.554688 C 15.578125 32.535156 16.097656 32.496094 16.457031 32.464844 C 17.089844 32.417969 17.796875 32.367188 18.648438 32.316406 C 18.875 32.304688 19.066406 32.289062 19.070312 32.28125 C 19.082031 32.273438 18.59375 32.261719 18.480469 32.269531 C 18.449219 32.273438 18.421875 32.265625 18.421875 32.257812 C 18.421875 32.25 18.4375 32.242188 18.453125 32.242188 C 18.484375 32.246094 18.824219 32.226562 19.09375 32.210938 C 19.15625 32.207031 19.34375 32.199219 19.507812 32.191406 C 19.671875 32.1875 19.886719 32.179688 19.984375 32.175781 C 20.078125 32.171875 20.347656 32.164062 20.574219 32.15625 C 20.800781 32.152344 21.035156 32.144531 21.09375 32.140625 C 21.152344 32.136719 21.449219 32.128906 21.753906 32.121094 C 22.058594 32.117188 22.410156 32.109375 22.53125 32.105469 C 22.652344 32.097656 23.125 32.09375 23.578125 32.085938 C 24.035156 32.082031 24.507812 32.074219 24.628906 32.070312 C 25.734375 32.03125 33.601562 32.023438 34.710938 32.054688 C 35.105469 32.066406 35.671875 32.085938 35.972656 32.097656 C 36.632812 32.113281 37.445312 32.128906 37.410156 32.117188 C 37.394531 32.113281 37.253906 32.101562 37.101562 32.089844 L 36.816406 32.066406 L 37.082031 32.0625 C 37.230469 32.058594 37.363281 32.050781 37.382812 32.042969 C 37.410156 32.027344 37.40625 32.023438 37.359375 32.03125 C 37.328125 32.035156 37.304688 32.03125 37.304688 32.023438 C 37.304688 32.015625 37.351562 32.007812 37.414062 32.007812 C 37.484375 32.007812 37.515625 32.015625 37.5 32.023438 C 37.484375 32.035156 37.503906 32.035156 37.550781 32.03125 C 37.671875 32.015625 38.949219 32.132812 39.4375 32.199219 C 39.507812 32.207031 39.546875 32.207031 39.566406 32.191406 C 39.585938 32.179688 39.621094 32.171875 39.65625 32.179688 C 39.695312 32.1875 39.71875 32.183594 39.71875 32.167969 C 39.71875 32.15625 39.699219 32.148438 39.675781 32.148438 C 39.65625 32.148438 39.621094 32.136719 39.601562 32.121094 C 39.566406 32.097656 39.566406 32.097656 39.609375 32.085938 C 39.660156 32.070312 39.65625 32.046875 39.601562 32.035156 C 38.988281 31.90625 36.40625 31.667969 33.539062 31.480469 C 33.238281 31.460938 32.800781 31.425781 32.5625 31.410156 C 32.324219 31.390625 31.957031 31.359375 31.75 31.347656 C 31.542969 31.332031 31.230469 31.308594 31.0625 31.292969 C 30.894531 31.28125 30.554688 31.253906 30.3125 31.242188 C 30.070312 31.226562 29.632812 31.199219 29.335938 31.179688 C 27.960938 31.089844 27.402344 31.066406 25.738281 31.027344 C 25.453125 31.019531 25.199219 31.011719 25.171875 31.011719 C 25.144531 31.011719 24.96875 31.007812 24.785156 31.007812 C 24.582031 31.003906 24.453125 30.996094 24.460938 30.988281 C 24.464844 30.976562 24.457031 30.96875 24.4375 30.972656 C 24.300781 30.972656 24.085938 30.960938 23.984375 30.949219 C 23.832031 30.925781 21.613281 30.917969 20.125 30.933594 Z M 18.074219 31.65625 C 18.066406 31.664062 17.945312 31.675781 17.804688 31.679688 C 17.664062 31.6875 17.519531 31.695312 17.480469 31.699219 C 17.441406 31.703125 17.296875 31.710938 17.164062 31.714844 C 17.027344 31.722656 16.875 31.730469 16.828125 31.734375 C 16.78125 31.738281 16.660156 31.746094 16.5625 31.753906 C 16.464844 31.757812 16.359375 31.765625 16.324219 31.769531 C 16.292969 31.773438 16.175781 31.78125 16.070312 31.789062 C 15.964844 31.792969 15.851562 31.800781 15.824219 31.804688 C 15.792969 31.808594 15.695312 31.816406 15.601562 31.824219 C 15.441406 31.832031 15.347656 31.839844 15.109375 31.859375 C 15.046875 31.863281 14.921875 31.871094 14.835938 31.875 C 14.613281 31.890625 14.425781 31.902344 14.332031 31.910156 C 14.242188 31.917969 13.878906 31.949219 13.664062 31.964844 C 13.578125 31.96875 13.476562 31.976562 13.433594 31.980469 C 13.390625 31.984375 13.289062 31.992188 13.203125 32 C 13.121094 32.003906 13.011719 32.011719 12.957031 32.015625 C 12.90625 32.019531 12.796875 32.027344 12.71875 32.035156 C 12.523438 32.046875 12.402344 32.058594 12.015625 32.085938 C 11.578125 32.121094 10.972656 32.160156 10.726562 32.175781 C 10.621094 32.179688 10.46875 32.1875 10.394531 32.191406 C 10.316406 32.199219 10.195312 32.207031 10.128906 32.210938 C 9.800781 32.230469 9.511719 32.242188 9.519531 32.230469 C 9.53125 32.222656 9.664062 32.207031 9.890625 32.191406 C 9.972656 32.1875 10.070312 32.179688 10.101562 32.175781 C 10.136719 32.171875 10.230469 32.164062 10.3125 32.15625 C 10.59375 32.136719 10.691406 32.132812 10.789062 32.121094 C 10.84375 32.117188 11.226562 32.089844 11.644531 32.058594 C 12.0625 32.03125 12.558594 31.996094 12.746094 31.980469 C 13.71875 31.90625 14.960938 31.820312 15.980469 31.753906 C 16.050781 31.75 16.1875 31.738281 16.289062 31.734375 C 16.390625 31.730469 16.609375 31.71875 16.773438 31.707031 C 17.15625 31.6875 17.363281 31.675781 17.683594 31.664062 C 17.824219 31.65625 17.941406 31.648438 17.941406 31.648438 C 17.953125 31.640625 18.085938 31.648438 18.074219 31.65625 Z M 26.953125 31.707031 C 28.03125 31.726562 28.386719 31.734375 29.679688 31.769531 C 31.183594 31.8125 31.734375 31.832031 31.953125 31.863281 C 32.027344 31.871094 32.035156 31.875 31.996094 31.886719 C 31.972656 31.894531 31.964844 31.898438 31.976562 31.898438 C 31.984375 31.902344 31.996094 31.910156 31.996094 31.917969 C 31.996094 31.941406 32.03125 31.941406 26.074219 31.945312 C 23.625 31.949219 21.488281 31.953125 21.324219 31.960938 C 21.078125 31.96875 19.636719 31.980469 19.507812 31.972656 C 19.445312 31.96875 19.496094 31.949219 19.582031 31.945312 C 19.898438 31.929688 20.113281 31.917969 20.414062 31.910156 C 20.601562 31.902344 20.78125 31.898438 20.8125 31.894531 C 20.839844 31.890625 20.929688 31.886719 21.007812 31.886719 C 21.128906 31.882812 21.152344 31.878906 21.144531 31.859375 C 21.136719 31.839844 21.144531 31.832031 21.164062 31.832031 C 21.183594 31.832031 21.191406 31.839844 21.183594 31.859375 C 21.175781 31.878906 21.191406 31.882812 21.269531 31.882812 C 21.351562 31.882812 21.363281 31.878906 21.375 31.84375 L 21.386719 31.804688 L 21.398438 31.847656 L 21.414062 31.894531 L 21.421875 31.851562 C 21.433594 31.820312 21.445312 31.8125 21.503906 31.816406 C 21.574219 31.816406 22.164062 31.800781 22.441406 31.789062 C 22.535156 31.785156 22.878906 31.773438 23.207031 31.769531 C 23.539062 31.761719 23.839844 31.753906 23.878906 31.753906 C 23.917969 31.75 24.132812 31.746094 24.359375 31.746094 C 24.597656 31.746094 24.769531 31.734375 24.769531 31.726562 C 24.769531 31.714844 24.398438 31.710938 23.847656 31.707031 C 23.34375 31.707031 22.925781 31.703125 22.917969 31.699219 C 22.90625 31.683594 26.011719 31.691406 26.953125 31.707031 Z M 21.296875 31.839844 C 21.296875 31.84375 21.289062 31.851562 21.277344 31.859375 C 21.269531 31.863281 21.261719 31.859375 21.261719 31.851562 C 21.261719 31.839844 21.269531 31.832031 21.277344 31.832031 C 21.289062 31.832031 21.296875 31.835938 21.296875 31.839844 Z M 16.980469 31.898438 C 16.96875 31.898438 16.945312 31.898438 16.929688 31.898438 C 16.910156 31.890625 16.921875 31.886719 16.949219 31.886719 C 16.980469 31.886719 16.992188 31.890625 16.980469 31.898438 Z M 16.636719 31.914062 C 16.632812 31.917969 16.617188 31.917969 16.601562 31.914062 C 16.589844 31.910156 16.59375 31.902344 16.613281 31.902344 C 16.632812 31.902344 16.644531 31.90625 16.636719 31.914062 Z M 32.066406 31.917969 C 32.066406 31.929688 32.058594 31.9375 32.050781 31.9375 C 32.039062 31.9375 32.027344 31.929688 32.023438 31.917969 C 32.019531 31.910156 32.023438 31.902344 32.039062 31.902344 C 32.054688 31.902344 32.066406 31.910156 32.066406 31.917969 Z M 16.445312 31.933594 C 16.425781 31.933594 16.398438 31.933594 16.382812 31.933594 C 16.367188 31.925781 16.378906 31.921875 16.414062 31.921875 C 16.445312 31.921875 16.460938 31.925781 16.445312 31.933594 Z M 16.1875 31.949219 C 16.167969 31.953125 16.128906 31.953125 16.101562 31.949219 C 16.074219 31.945312 16.09375 31.941406 16.140625 31.941406 C 16.1875 31.941406 16.210938 31.945312 16.1875 31.949219 Z M 19.445312 31.976562 C 19.425781 32 19.402344 31.984375 19.417969 31.957031 C 19.425781 31.945312 19.4375 31.941406 19.449219 31.949219 C 19.460938 31.953125 19.460938 31.964844 19.445312 31.976562 Z M 15.925781 31.96875 C 15.902344 31.96875 15.863281 31.96875 15.835938 31.96875 C 15.808594 31.964844 15.828125 31.960938 15.875 31.960938 C 15.925781 31.960938 15.945312 31.964844 15.925781 31.96875 Z M 34.980469 31.96875 C 34.96875 31.96875 34.949219 31.96875 34.9375 31.96875 C 34.925781 31.960938 34.933594 31.957031 34.957031 31.957031 C 34.984375 31.957031 34.992188 31.960938 34.980469 31.96875 Z M 36.65625 31.96875 C 36.644531 31.96875 36.621094 31.96875 36.613281 31.96875 C 36.597656 31.960938 36.609375 31.957031 36.632812 31.957031 C 36.65625 31.957031 36.667969 31.960938 36.65625 31.96875 Z M 15.652344 31.984375 C 15.625 31.988281 15.582031 31.988281 15.554688 31.984375 C 15.527344 31.980469 15.550781 31.976562 15.601562 31.976562 C 15.65625 31.976562 15.679688 31.980469 15.652344 31.984375 Z M 35.40625 31.984375 C 35.371094 31.988281 35.320312 31.988281 35.289062 31.984375 C 35.257812 31.980469 35.28125 31.976562 35.347656 31.976562 C 35.410156 31.976562 35.433594 31.980469 35.40625 31.984375 Z M 36.957031 31.984375 C 36.933594 31.988281 36.894531 31.988281 36.867188 31.984375 C 36.839844 31.980469 36.859375 31.976562 36.90625 31.976562 C 36.957031 31.976562 36.976562 31.980469 36.957031 31.984375 Z M 15.34375 32.003906 C 15.332031 32.007812 15.308594 32.007812 15.300781 32.003906 C 15.285156 31.996094 15.296875 31.992188 15.320312 31.992188 C 15.34375 31.992188 15.351562 31.996094 15.34375 32.003906 Z M 15.421875 32 C 15.414062 32.007812 15.398438 32.007812 15.386719 32.003906 C 15.371094 31.996094 15.378906 31.992188 15.398438 31.992188 C 15.417969 31.988281 15.425781 31.996094 15.421875 32 Z M 35.730469 32.003906 C 35.703125 32.007812 35.65625 32.007812 35.625 32.003906 C 35.59375 32 35.613281 31.996094 35.671875 31.996094 C 35.730469 31.996094 35.757812 32 35.730469 32.003906 Z M 37.203125 32.003906 C 37.179688 32.007812 37.140625 32.007812 37.113281 32.003906 C 37.085938 32 37.105469 31.996094 37.152344 31.996094 C 37.203125 31.996094 37.222656 32 37.203125 32.003906 Z M 36.054688 32.019531 C 36.035156 32.023438 35.996094 32.023438 35.96875 32.019531 C 35.941406 32.015625 35.960938 32.011719 36.007812 32.011719 C 36.054688 32.011719 36.078125 32.015625 36.054688 32.019531 Z M 36.339844 32.039062 C 36.316406 32.042969 36.28125 32.042969 36.257812 32.039062 C 36.238281 32.035156 36.253906 32.03125 36.296875 32.03125 C 36.34375 32.03125 36.359375 32.035156 36.339844 32.039062 Z M 36.65625 32.054688 C 36.632812 32.058594 36.59375 32.058594 36.566406 32.054688 C 36.539062 32.050781 36.558594 32.046875 36.605469 32.046875 C 36.65625 32.046875 36.675781 32.050781 36.65625 32.054688 Z M 9.449219 32.238281 C 9.449219 32.246094 9.410156 32.253906 9.359375 32.25 L 9.265625 32.25 L 9.34375 32.238281 C 9.386719 32.230469 9.429688 32.222656 9.4375 32.222656 C 9.445312 32.222656 9.449219 32.226562 9.449219 32.238281 Z M 9.503906 32.226562 C 9.503906 32.230469 9.496094 32.242188 9.484375 32.246094 C 9.476562 32.25 9.46875 32.246094 9.46875 32.238281 C 9.46875 32.226562 9.476562 32.21875 9.484375 32.21875 C 9.496094 32.21875 9.503906 32.222656 9.503906 32.226562 Z M 9.253906 32.242188 C 9.253906 32.25 9.25 32.257812 9.238281 32.261719 C 9.230469 32.269531 9.21875 32.265625 9.21875 32.257812 C 9.21875 32.246094 9.230469 32.238281 9.238281 32.238281 C 9.25 32.238281 9.253906 32.242188 9.253906 32.242188 Z M 18.382812 32.265625 C 18.367188 32.269531 18.339844 32.269531 18.320312 32.265625 C 18.304688 32.261719 18.320312 32.257812 18.351562 32.257812 C 18.386719 32.257812 18.398438 32.261719 18.382812 32.265625 Z M 7.101562 32.566406 C 7.09375 32.570312 7.078125 32.570312 7.066406 32.566406 C 7.050781 32.5625 7.058594 32.554688 7.078125 32.554688 C 7.097656 32.554688 7.105469 32.558594 7.101562 32.566406 Z M 7.171875 32.566406 C 7.164062 32.570312 7.148438 32.570312 7.136719 32.566406 C 7.121094 32.5625 7.128906 32.554688 7.148438 32.554688 C 7.167969 32.554688 7.175781 32.558594 7.171875 32.566406 Z M 6.90625 32.585938 C 6.871094 32.585938 6.8125 32.585938 6.78125 32.585938 C 6.753906 32.582031 6.78125 32.578125 6.847656 32.578125 C 6.917969 32.578125 6.941406 32.582031 6.90625 32.585938 Z M 6.398438 32.617188 C 5.652344 32.675781 4.820312 32.765625 4.796875 32.792969 C 4.792969 32.800781 4.882812 32.800781 5 32.792969 C 5.113281 32.789062 5.285156 32.777344 5.378906 32.773438 C 5.46875 32.769531 5.589844 32.761719 5.648438 32.753906 C 5.726562 32.75 5.746094 32.75 5.746094 32.773438 C 5.746094 32.785156 5.738281 32.800781 5.726562 32.808594 C 5.703125 32.816406 5.871094 32.808594 6.144531 32.789062 C 6.222656 32.785156 6.28125 32.785156 6.277344 32.789062 C 6.265625 32.800781 5.457031 32.867188 5.28125 32.875 C 5.234375 32.875 5.160156 32.882812 5.121094 32.890625 C 5.082031 32.898438 4.976562 32.910156 4.882812 32.914062 C 4.6875 32.929688 4.675781 32.929688 4.476562 32.957031 C 4.394531 32.964844 4.234375 32.980469 4.117188 32.984375 C 4 32.992188 3.773438 33.003906 3.613281 33.015625 C 3.355469 33.035156 3.308594 33.03125 3.1875 33.003906 C 3.082031 32.980469 3.042969 32.964844 3.023438 32.929688 C 2.96875 32.847656 3.023438 32.835938 3.429688 32.828125 C 3.59375 32.824219 3.898438 32.804688 4.109375 32.785156 C 4.429688 32.753906 5.539062 32.664062 6.257812 32.609375 C 6.371094 32.601562 6.511719 32.59375 6.578125 32.59375 C 6.640625 32.59375 6.558594 32.605469 6.398438 32.617188 Z M 3.226562 32.695312 C 3.226562 32.710938 3.121094 32.730469 3.058594 32.730469 C 3.027344 32.730469 3.027344 32.730469 3.058594 32.703125 C 3.089844 32.679688 3.226562 32.675781 3.226562 32.695312 Z M 5.851562 32.769531 C 5.851562 32.777344 5.839844 32.785156 5.828125 32.785156 C 5.8125 32.785156 5.796875 32.785156 5.789062 32.785156 C 5.78125 32.785156 5.773438 32.777344 5.769531 32.769531 C 5.765625 32.757812 5.78125 32.753906 5.808594 32.753906 C 5.835938 32.753906 5.851562 32.761719 5.851562 32.769531 Z M 6.339844 32.792969 C 6.335938 32.800781 6.320312 32.800781 6.308594 32.796875 C 6.292969 32.789062 6.300781 32.785156 6.320312 32.785156 C 6.339844 32.785156 6.347656 32.789062 6.339844 32.792969 Z M 6.339844 32.792969 " fill-opacity="1" fill-rule="nonzero"/></g><path fill="#ffffff" d="M 24.785156 31.730469 C 24.785156 31.734375 24.796875 31.742188 24.8125 31.742188 C 24.824219 31.742188 24.839844 31.734375 24.847656 31.730469 C 24.851562 31.722656 24.839844 31.714844 24.820312 31.714844 C 24.800781 31.714844 24.785156 31.722656 24.785156 31.730469 Z M 24.785156 31.730469 " fill-opacity="1" fill-rule="nonzero"/><path fill="#ffffff" d="M 5.617188 32.820312 C 5.601562 32.839844 5.625 32.839844 5.660156 32.820312 C 5.683594 32.804688 5.683594 32.800781 5.65625 32.800781 C 5.640625 32.800781 5.621094 32.808594 5.617188 32.820312 Z M 5.617188 32.820312 " fill-opacity="1" fill-rule="nonzero"/><path fill="#ffffff" d="M 37.425781 32.042969 C 37.425781 32.054688 37.433594 32.058594 37.445312 32.050781 C 37.453125 32.046875 37.460938 32.039062 37.460938 32.03125 C 37.460938 32.027344 37.453125 32.023438 37.445312 32.023438 C 37.433594 32.023438 37.425781 32.035156 37.425781 32.042969 Z M 37.425781 32.042969 " fill-opacity="1" fill-rule="nonzero"/></svg>